<svg width="20" height="21" viewBox="0 0 20 21" fill="none" xmlns="http://www.w3.org/2000/svg">
<g id="Group">
<path id="Vector" d="M8.21847 5.26717C8.81063 5.06934 9.44367 4.96304 10.1029 4.96304C12.9772 4.96304 15.377 7.00464 15.9267 9.7183L20.0011 8.88718C19.066 4.27539 14.9905 0.804688 10.1029 0.804688C8.98287 0.804688 7.90694 0.987217 6.90039 1.32353L8.21847 5.26717Z" fill="#FFCC00"/>
<path id="Vector_2" d="M3.40898 18.472L6.16434 15.3569C4.93437 14.2672 4.15835 12.677 4.15835 10.9052C4.15835 9.13479 4.93331 7.54528 6.16248 6.45696L3.40687 3.34131C1.31806 5.19193 0 7.89507 0 10.9052C0 13.9172 1.31859 16.6211 3.40898 18.472Z" fill="#00A0DE"/>
<path id="Vector_3" d="M15.9253 12.0977C15.3733 14.81 12.9761 16.8476 10.1026 16.8476C9.44321 16.8476 8.80831 16.7413 8.21642 16.5424L6.89648 20.4877C7.9033 20.8237 8.98135 21.0057 10.1026 21.0057C14.9856 21.0057 19.0606 17.5408 19.9993 12.9333L15.9253 12.0977Z" fill="#EC3413"/>
</g>
</svg>
