<svg width="120" height="121" viewBox="0 0 120 121" fill="none" xmlns="http://www.w3.org/2000/svg">
<g id="Inbox">
<rect width="120" height="120" transform="translate(0 0.5)" fill="white"/>
<g id="Inbox (Line)">
<path id="Vector" d="M30.0086 105.5H89.99C91.6386 105.504 93.2278 104.881 94.439 103.756C99.4919 99.0495 103.534 93.3529 106.317 87.0165C109.101 80.68 110.566 73.8377 110.623 66.9105C110.882 38.7432 88.1218 15.5666 60.1221 15.5001C32.1066 15.4336 9.37503 38.2613 9.37503 66.4302C9.36703 73.4412 10.802 80.3779 13.5896 86.8036C16.3772 93.2293 20.457 99.0047 25.5722 103.766C26.7809 104.886 28.3655 105.505 30.0086 105.5Z" fill="#F5F5F5"/>
<path id="Vector_2" d="M79.0815 18.4036H79.0815C83.2591 18.4036 87.2655 20.0631 90.2194 23.017C93.1734 25.971 94.8329 29.9774 94.8329 34.155V56.7629C94.8329 57.2808 94.7309 57.7936 94.5327 58.2721C94.3346 58.7505 94.0441 59.1853 93.6779 59.5515C93.3117 59.9177 92.8769 60.2082 92.3985 60.4063C91.92 60.6045 91.4072 60.7065 90.8893 60.7065H67.2737C66.2278 60.7065 65.2247 60.291 64.4851 59.5515C63.7456 58.8119 63.3301 57.8088 63.3301 56.7629V34.155C63.3301 29.9774 64.9896 25.971 67.9436 23.0171C70.8975 20.0631 74.904 18.4036 79.0815 18.4036L79.0815 18.4036Z" fill="white" stroke="#D4D4D4" stroke-width="1.40625" stroke-linecap="round" stroke-linejoin="round"/>
<path id="Vector_3" d="M53.0327 34.2632H89.3894C90.3848 34.2632 91.1917 35.0701 91.1917 36.0654V58.2011C91.1917 59.1965 90.3848 60.0034 89.3894 60.0034H53.0327C52.0374 60.0034 51.2305 59.1965 51.2305 58.2011V36.0654C51.2305 35.0701 52.0374 34.2632 53.0327 34.2632Z" fill="white" stroke="#D4D4D4" stroke-width="1.40625"/>
<path id="Vector_4" d="M57.9027 37.9121H67.7577C68.2379 37.9121 68.6272 38.3014 68.6272 38.7816C68.6272 39.2619 68.2379 39.6512 67.7577 39.6512H57.9027C57.4225 39.6512 57.0332 39.2619 57.0332 38.7816V38.7816C57.0332 38.3014 57.4225 37.9121 57.9027 37.9121Z" fill="#D4D9E3" stroke="#D4D4D4" stroke-width="0.234375"/>
<path id="Vector_5" d="M57.9027 41.7791H65.094C65.5742 41.7791 65.9635 42.1684 65.9635 42.6486C65.9635 43.1288 65.5742 43.5181 65.094 43.5181H57.9027C57.4225 43.5181 57.0332 43.1288 57.0332 42.6486V42.6486C57.0332 42.1684 57.4225 41.7791 57.9027 41.7791Z" fill="#D4D9E3" stroke="#D4D4D4" stroke-width="0.234375"/>
<path id="Vector_6" d="M57.9027 50.7483H78.8145C79.2948 50.7483 79.6841 51.1376 79.6841 51.6178C79.6841 52.0981 79.2948 52.4874 78.8145 52.4874H57.9027C57.4225 52.4874 57.0332 52.0981 57.0332 51.6178V51.6178C57.0332 51.1376 57.4225 50.7483 57.9027 50.7483Z" fill="#D4D9E3" stroke="#D4D4D4" stroke-width="0.234375"/>
<path id="Vector_7" d="M57.9027 54.6152H73.6609C74.1412 54.6152 74.5305 55.0045 74.5305 55.4848C74.5305 55.965 74.1412 56.3543 73.6609 56.3543H57.9027C57.4225 56.3543 57.0332 55.965 57.0332 55.4848V55.4848C57.0332 55.0045 57.4225 54.6152 57.9027 54.6152Z" fill="#D4D9E3" stroke="#D4D4D4" stroke-width="0.234375"/>
<path id="Vector_8" d="M55.9227 48.3594H50.1914V105.356H55.9227V48.3594Z" fill="white" stroke="#D4D4D4" stroke-width="1.40625" stroke-linecap="round" stroke-linejoin="round"/>
<path id="Vector_9" d="M60.1052 48.3594H55.9238V105.356H60.1052V48.3594Z" fill="white" stroke="#D4D4D4" stroke-width="1.40625" stroke-linecap="round" stroke-linejoin="round"/>
<path id="Vector_10" d="M63.3289 56.7629V34.155C63.3291 30.1034 64.8906 26.2077 67.6888 23.2777C70.4871 20.3476 74.3068 18.6085 78.3541 18.4219H36.4959C36.2548 18.4109 36.0128 18.4036 35.769 18.4036H35.769C31.5915 18.4036 27.585 20.0631 24.6311 23.0171C21.6771 25.971 20.0176 29.9774 20.0176 34.155V56.7629C20.0176 57.2808 20.1196 57.7936 20.3178 58.272C20.516 58.7505 20.8065 59.1852 21.1727 59.5514C21.5389 59.9176 21.9736 60.2081 22.4521 60.4063C22.9305 60.6044 23.4433 60.7064 23.9612 60.7064H67.2719C66.2261 60.7063 65.2232 60.2907 64.4837 59.5512C63.7443 58.8117 63.3289 57.8087 63.3289 56.7629Z" fill="white" stroke="#D4D4D4" stroke-width="1.40625" stroke-linecap="round" stroke-linejoin="round"/>
<path id="Vector_11" d="M108.621 60.7065H67.5249C66.3699 60.7065 65.4336 61.6429 65.4336 62.7979C65.4336 63.9528 66.3699 64.8892 67.5249 64.8892H108.621C109.776 64.8892 110.712 63.9528 110.712 62.7979C110.712 61.6429 109.776 60.7065 108.621 60.7065Z" fill="white" stroke="#D4D4D4" stroke-width="1.40625" stroke-linecap="round" stroke-linejoin="round"/>
<path id="Vector_12" d="M40.2023 49.9017C41.9904 49.9017 43.4398 48.4523 43.4398 46.6643C43.4398 44.8762 41.9904 43.4268 40.2023 43.4268C38.4143 43.4268 36.9648 44.8762 36.9648 46.6643C36.9648 48.4523 38.4143 49.9017 40.2023 49.9017Z" fill="white" stroke="#D4D4D4" stroke-width="1.40625" stroke-linecap="round" stroke-linejoin="round"/>
<path id="Vector_13" d="M40.2022 29.3645H40.2022C39.5728 29.3645 39.0625 29.8748 39.0625 30.5042V46.3848C39.0625 47.0142 39.5728 47.5245 40.2022 47.5245C40.8317 47.5245 41.342 47.0142 41.342 46.3848V30.5042C41.342 29.8748 40.8317 29.3645 40.2022 29.3645Z" fill="white" stroke="#D4D4D4" stroke-width="1.40625" stroke-linecap="round" stroke-linejoin="round"/>
<path id="Vector_14" d="M32.7923 26.2493H40.8547C41.1377 26.2493 41.4092 26.3617 41.6094 26.5619C41.8095 26.762 41.922 27.0335 41.922 27.3165V36.8916C41.922 37.1747 41.8095 37.4462 41.6094 37.6463C41.4092 37.8465 41.1377 37.9589 40.8547 37.9589H32.7923C31.2395 37.9589 29.7503 37.3421 28.6523 36.2441C27.5543 35.1461 26.9375 33.6569 26.9375 32.1041C26.9375 30.5513 27.5543 29.0621 28.6523 27.9641C29.7503 26.8661 31.2395 26.2493 32.7923 26.2493V26.2493Z" fill="#FF3C00"/>
</g>
</g>
</svg>
