<svg width="120" height="120" viewBox="0 0 120 120" fill="none" xmlns="http://www.w3.org/2000/svg">
<g id="Management">
<g id="Group">
<g id="Management_2">
<path id="Vector" d="M83.8553 18.2886H30.1084C28.0373 18.2886 26.3584 19.9675 26.3584 22.0386V98.2433C26.3584 100.314 28.0373 101.993 30.1084 101.993H83.8553C85.9263 101.993 87.6053 100.314 87.6053 98.2433V22.0386C87.6053 19.9675 85.9263 18.2886 83.8553 18.2886Z" fill="white"/>
<path id="Vector_2" d="M76.5637 88.5918H37.4863V92.6371H76.5637V88.5918Z" fill="#D4D4D4"/>
<path id="Vector_3" d="M88.3084 98.9466C88.3084 101.018 86.6295 102.697 84.5584 102.697H29.4053C27.3342 102.697 25.6553 101.018 25.6553 98.9466V21.3286C25.6553 19.2575 27.3342 17.5786 29.4053 17.5786H84.5584C86.6295 17.5786 88.3084 19.2575 88.3084 21.3286V98.9466ZM27.0615 97.5403C27.0615 99.6114 28.7405 101.29 30.8115 101.29H83.1521C85.2232 101.29 86.9021 99.6114 86.9021 97.5403V22.7349C86.9021 20.6638 85.2232 18.9849 83.1521 18.9849H30.8115C28.7405 18.9849 27.0615 20.6638 27.0615 22.7349V97.5403Z" fill="#E5E5E5"/>
<path id="Vector_4" d="M46.5145 29.5996H36.1152V39.9988H46.5145V29.5996Z" fill="#E5E5E5"/>
<path id="Vector_5" d="M46.5145 49.7417H36.1152V60.1409H46.5145V49.7417Z" fill="#E5E5E5"/>
<path id="Vector_6" d="M46.5145 69.8838H36.1152V80.283H46.5145V69.8838Z" fill="#E5E5E5"/>
<path id="Vector_7" d="M46.5145 29.5996H36.1152V39.9988H46.5145V29.5996Z" fill="#E5E5E5"/>
<path id="Vector_8" d="M46.5145 49.7417H36.1152V60.1409H46.5145V49.7417Z" fill="#E5E5E5"/>
<path id="Vector_9" d="M46.5145 69.8838H36.1152V80.283H46.5145V69.8838Z" fill="#E5E5E5"/>
<path id="Vector_10" d="M63.2986 29.5996H53.4385V31.8965H63.2986V29.5996Z" fill="#E5E5E5"/>
<path id="Vector_11" d="M76.5643 29.5996H66.7041V31.8965H76.5643V29.5996Z" fill="#E5E5E5"/>
<path id="Vector_12" d="M69.9314 34.7368H53.4385V37.0337H69.9314V34.7368Z" fill="#E5E5E5"/>
<path id="Vector_13" d="M59.8908 49.7417H53.4385V52.0386H59.8908V49.7417Z" fill="#E5E5E5"/>
<path id="Vector_14" d="M76.5645 49.7417H63.2988V52.0386H76.5645V49.7417Z" fill="#E5E5E5"/>
<path id="Vector_15" d="M69.9314 54.8794H53.4385V57.1763H69.9314V54.8794Z" fill="#E5E5E5"/>
<path id="Vector_16" d="M67.7658 69.8838H53.4385V72.1807H67.7658V69.8838Z" fill="#E5E5E5"/>
<path id="Vector_17" d="M76.5639 69.8838H71.1709V72.1807H76.5639V69.8838Z" fill="#E5E5E5"/>
<path id="Vector_18" d="M69.9314 75.0215H53.4385V77.3184H69.9314V75.0215Z" fill="#E5E5E5"/>
</g>
</g>
</g>
</svg>
