<svg width="20" height="14" viewBox="0 0 20 14" fill="none" xmlns="http://www.w3.org/2000/svg">
<g id="Symbol">
<path id="Vector" d="M12.705 2.14941H7.29688V11.868H12.705V2.14941Z" fill="#FF5F00"/>
<path id="Vector_2" d="M7.63954 7.00883C7.63869 6.07287 7.85079 5.14898 8.25978 4.3071C8.66877 3.46522 9.26393 2.72742 10.0002 2.14956C9.08843 1.43288 7.99341 0.987188 6.8403 0.863424C5.68719 0.73966 4.52253 0.94282 3.47942 1.44968C2.43632 1.95654 1.55686 2.74666 0.941576 3.72971C0.326291 4.71277 0 5.8491 0 7.00883C0 8.16856 0.326291 9.3049 0.941576 10.288C1.55686 11.271 2.43632 12.0611 3.47942 12.568C4.52253 13.0749 5.68719 13.278 6.8403 13.1542C7.99341 13.0305 9.08843 12.5848 10.0002 11.8681C9.26394 11.2902 8.66877 10.5525 8.25978 9.71057C7.85079 8.8687 7.63869 7.9448 7.63954 7.00883Z" fill="#EB001B"/>
<path id="Vector_3" d="M19.9999 7.00883C19.9999 8.16855 19.6737 9.30488 19.0584 10.2879C18.4432 11.271 17.5638 12.0611 16.5207 12.568C15.4776 13.0748 14.3129 13.278 13.1599 13.1542C12.0068 13.0305 10.9118 12.5848 10 11.8681C10.7356 11.2897 11.3303 10.5517 11.7393 9.71C12.1482 8.86825 12.3607 7.94465 12.3607 7.00883C12.3607 6.07302 12.1482 5.14942 11.7393 4.30767C11.3303 3.46592 10.7356 2.72801 10 2.14956C10.9118 1.43288 12.0068 0.987186 13.1599 0.863423C14.3129 0.739661 15.4776 0.942824 16.5207 1.44969C17.5638 1.95656 18.4432 2.74668 19.0584 3.72973C19.6737 4.71279 19.9999 5.84912 19.9999 7.00883Z" fill="#F79E1B"/>
<path id="Vector_4" d="M19.4112 10.8385V10.6396H19.4914V10.599H19.2871V10.6396H19.3674V10.8385H19.4112ZM19.8079 10.8385V10.5986H19.7453L19.6732 10.7636L19.6012 10.5986H19.5385V10.8385H19.5827V10.6576L19.6503 10.8136H19.6961L19.7637 10.6572V10.8385H19.8079Z" fill="#F79E1B"/>
</g>
</svg>
