<svg width="120" height="121" viewBox="0 0 120 121" fill="none" xmlns="http://www.w3.org/2000/svg">
<g id="Sucess">
<rect width="120" height="120" transform="translate(0 0.5)" fill="white"/>
<g id="Tag (Solid)">
<path id="Vector" d="M30.0086 105.5H89.99C91.6386 105.504 93.2278 104.881 94.439 103.756C99.4919 99.0495 103.534 93.3529 106.317 87.0164C109.101 80.68 110.566 73.8377 110.623 66.9105C110.882 38.7432 88.1218 15.5666 60.1222 15.5001C32.1066 15.4336 9.37503 38.2613 9.37503 66.4302C9.36703 73.4412 10.802 80.3779 13.5896 86.8036C16.3772 93.2293 20.457 99.0047 25.5722 103.766C26.7809 104.886 28.3654 105.505 30.0086 105.5Z" fill="url(#paint0_linear_4373_12730)"/>
<path id="Vector_2" d="M64.0978 42.1367C65.4527 42.1367 66.551 41.0384 66.551 39.6835C66.551 38.3286 65.4527 37.2302 64.0978 37.2302C62.7429 37.2302 61.6445 38.3286 61.6445 39.6835C61.6445 41.0384 62.7429 42.1367 64.0978 42.1367Z" fill="white"/>
<g id="Group 18474">
<g id="Group 18472">
<path id="Vector_3" d="M60 114.406C83.6878 114.406 102.891 95.2035 102.891 71.5156C102.891 47.8278 83.6878 28.625 60 28.625C36.3122 28.625 17.1094 47.8278 17.1094 71.5156C17.1094 95.2035 36.3122 114.406 60 114.406Z" fill="#61B96E"/>
</g>
<g id="Group 18473">
<path id="Vector_4" d="M51.9469 92.893C51.3186 92.8938 50.6963 92.7704 50.1158 92.53C49.5353 92.2895 49.008 91.9368 48.5643 91.4919L34.5309 77.4589C33.6351 76.5615 33.1322 75.3452 33.1328 74.0772C33.1334 72.8092 33.6373 71.5934 34.5339 70.6968C35.4305 69.8002 36.6464 69.2962 37.9144 69.2956C39.1824 69.2951 40.3987 69.7979 41.2961 70.6937L51.9469 81.3441L78.7021 54.5889C79.1463 54.1447 79.6737 53.7923 80.2541 53.5519C80.8345 53.3115 81.4565 53.1877 82.0847 53.1877C82.7129 53.1877 83.335 53.3115 83.9154 53.5519C84.4958 53.7923 85.0231 54.1447 85.4673 54.5889C85.9116 55.0331 86.2639 55.5604 86.5043 56.1408C86.7447 56.7212 86.8685 57.3433 86.8685 57.9715C86.8685 58.5997 86.7447 59.2217 86.5043 59.8021C86.2639 60.3825 85.9116 60.9099 85.4673 61.3541L55.3295 91.4919C54.8858 91.9368 54.3585 92.2896 53.778 92.53C53.1975 92.7705 52.5752 92.8938 51.9469 92.893Z" fill="white"/>
</g>
</g>
</g>
</g>
<defs>
<linearGradient id="paint0_linear_4373_12730" x1="60" y1="15.5" x2="60" y2="105.5" gradientUnits="userSpaceOnUse">
<stop stop-color="#FBFDFE"/>
<stop offset="1" stop-color="#F0F5FA"/>
</linearGradient>
</defs>
</svg>
