<svg width="120" height="120" viewBox="0 0 120 120" fill="none" xmlns="http://www.w3.org/2000/svg">
<g id="Support">
<rect width="120" height="120" fill="white"/>
<g id="Support (Line)">
<path id="Vector" d="M30.0086 105H89.99C91.6386 105.004 93.2278 104.381 94.439 103.256C99.4919 98.5495 103.534 92.8529 106.317 86.5164C109.101 80.18 110.566 73.3377 110.623 66.4105C110.882 38.2432 88.1218 15.0666 60.1222 15.0001C32.1066 14.9336 9.37503 37.7613 9.37503 65.9302C9.36703 72.9412 10.802 79.8779 13.5896 86.3036C16.3772 92.7293 20.457 98.5047 25.5722 103.266C26.7809 104.386 28.3654 105.005 30.0086 105Z" fill="#F5F5F5"/>
<path id="Vector_2" d="M79.5498 68.8087C77.3514 67.7615 75.4284 66.2145 73.9345 64.2915C72.4405 62.3685 71.4171 60.1227 70.946 57.7336L69.5369 50.5879L59.9996 53.6521L50.4623 50.5879L49.0531 57.7336C48.582 60.1227 47.5586 62.3685 46.0647 64.2915C44.5708 66.2145 42.6478 67.7615 40.4493 68.8087L28.3611 74.5672C26.1917 75.6006 24.4434 77.3482 23.4091 79.5171C22.3748 81.6861 22.1173 84.1446 22.6799 86.4808L22.7349 86.7093C23.4933 89.8893 25.1161 92.7977 27.4239 95.1132C29.7318 97.4286 32.6348 99.0609 35.8123 99.8297C51.3094 103.53 67.3623 103.475 83.9711 99.6657C87.2023 98.9272 90.1634 97.302 92.5215 94.9728C94.8795 92.6435 96.5411 89.7026 97.3193 86.4808V86.4808C97.8818 84.1446 97.6243 81.6861 96.59 79.5171C95.5557 77.3482 93.8074 75.6006 91.6381 74.5672L79.5498 68.8087Z" fill="white" stroke="#A3A3A3" stroke-width="1.40625" stroke-miterlimit="10"/>
<path id="Vector_3" d="M69.5643 59.8927H69.5643C66.8631 62.0946 63.485 63.297 60.0001 63.297C56.5152 63.297 53.1371 62.0946 50.4359 59.8927H50.4359C48.6359 58.4254 47.1502 56.6101 46.0679 54.5554C44.9855 52.5007 44.3287 50.2488 44.1366 47.9344L43.1653 36.2291C42.9721 33.901 43.2639 31.5581 44.0222 29.3485C44.7806 27.1389 45.989 25.1106 47.5711 23.3918C49.1532 21.6729 51.0746 20.3009 53.2139 19.3625C55.3532 18.424 57.664 17.9395 60.0001 17.9395H60.0001C62.3362 17.9395 64.6469 18.424 66.7863 19.3625C68.9256 20.3009 70.847 21.6729 72.4291 23.3918C74.0112 25.1106 75.2196 27.1389 75.978 29.3485C76.7363 31.5581 77.0281 33.901 76.8349 36.2291L75.8636 47.9344C75.6715 50.2488 75.0147 52.5007 73.9323 54.5554C72.85 56.6101 71.3643 58.4254 69.5643 59.8927Z" fill="white" stroke="#A3A3A3" stroke-width="1.40625" stroke-miterlimit="10"/>
<path id="Vector_4" d="M40.4493 68.8092L28.3611 74.5676C26.1919 75.601 24.4437 77.3484 23.4093 79.5171C22.375 81.6858 22.1174 84.1441 22.6796 86.4801L22.7381 86.7232C23.493 89.8959 25.1101 92.7983 27.4109 95.1097C29.7116 97.4211 32.6064 99.0517 35.7756 99.8213C51.284 103.53 67.3492 103.478 83.9711 99.6661C87.2023 98.9276 90.1634 97.3024 92.5215 94.9732C94.8796 92.644 96.5411 89.7031 97.3193 86.4813C97.8818 84.1451 97.6244 81.6866 96.5901 79.5176C95.5558 77.3486 93.8075 75.601 91.6381 74.5676L79.5498 68.8092C78.6974 68.4024 77.8836 67.9191 77.1186 67.3652L70.9143 72.5435C67.8516 75.0997 63.9889 76.4999 59.9996 76.4999C56.0103 76.4999 52.1475 75.0997 49.0848 72.5435L42.8806 67.3652C42.1155 67.9191 41.3018 68.4024 40.4493 68.8092Z" fill="white" stroke="#A3A3A3" stroke-width="1.40625" stroke-miterlimit="10"/>
<path id="Vector_5" d="M60 107.768C66.4721 107.768 71.7188 102.521 71.7188 96.0488C71.7188 89.5767 66.4721 84.3301 60 84.3301C53.5279 84.3301 48.2812 89.5767 48.2812 96.0488C48.2812 102.521 53.5279 107.768 60 107.768Z" fill="#FF3C00"/>
</g>
<path id="Vector_6" d="M64.5413 95.0072H61.1188V91.5846C61.1183 91.2885 61.0004 91.0047 60.7909 90.7955C60.5814 90.5863 60.2974 90.4688 60.0013 90.4688C59.7052 90.4688 59.4212 90.5863 59.2117 90.7955C59.0022 91.0047 58.8843 91.2885 58.8839 91.5846V95.0072H55.5092C55.2256 95.0024 54.9502 95.1027 54.7361 95.2887C54.522 95.4747 54.3842 95.7333 54.3491 96.0148C54.3338 96.17 54.3512 96.3268 54.4001 96.4749C54.4491 96.623 54.5285 96.7593 54.6332 96.8749C54.738 96.9905 54.8658 97.0828 55.0084 97.1461C55.151 97.2093 55.3053 97.242 55.4613 97.242H58.8839V100.617C58.8791 100.9 58.9794 101.176 59.1655 101.39C59.3515 101.604 59.6101 101.742 59.8916 101.777C60.0468 101.792 60.2035 101.775 60.3517 101.726C60.4998 101.677 60.636 101.597 60.7516 101.493C60.8672 101.388 60.9596 101.26 61.0228 101.117C61.0861 100.975 61.1187 100.821 61.1187 100.665V97.242H64.5413C64.6881 97.2422 64.8336 97.2134 64.9694 97.1574C65.1051 97.1013 65.2285 97.0191 65.3324 96.9153C65.4364 96.8115 65.5188 96.6882 65.5751 96.5526C65.6313 96.4169 65.6603 96.2714 65.6603 96.1246C65.6603 95.9777 65.6313 95.8323 65.5751 95.6966C65.5188 95.5609 65.4364 95.4377 65.3324 95.3339C65.2285 95.2301 65.1051 95.1478 64.9694 95.0918C64.8336 95.0357 64.6881 95.0069 64.5413 95.0072V95.0072Z" fill="white"/>
</g>
</svg>
